# xmcd
#
# Track frame offsets: 
#        150
#        22170
#        33539
#        46636
#        57476
#        69968
#        81787
#        94974
#        107579
#        118153
#        131403
#        142852
#        154589
#        165049
#        178061
#
# Disc length: 2522 seconds
#
# Revision: 2
# Processed by: cddbd v1.5.1PL0 Copyright (c) Steve Scherf et al.
# Submitted via: ExactAudioCopy v0.95a5
#
DISCID=bc09d80f
DTITLE=ELMORE JAMES - Dust My Broom
DYEAR=1900
DGENRE=
TTITLE0=Something Inside of Me
TTITLE1=Person to Person
TTITLE2=Baby Please Set a Date
TTITLE3=One Way Out
TTITLE4=The Sky Is Crying
TTITLE5=Talk to Me
TTITLE6=Anna Lee
TTITLE7=I Needed You
TTITLE8=Done Somebody Wrong
TTITLE9=Dust My Broom
TTITLE10=Shake Your Money Maker
TTITLE11=Fine Little Mama
TTITLE12=Can't Stop Lovin My Baby
TTITLE13=Help My Baby Last Night
TTITLE14=Rollin' and Tumblin'
EXTD=
EXTT0=
EXTT1=
EXTT2=
EXTT3=
EXTT4=
EXTT5=
EXTT6=
EXTT7=
EXTT8=
EXTT9=
EXTT10=
EXTT11=
EXTT12=
EXTT13=
EXTT14=
PLAYORDER=
